<?xml version="1.0" encoding="UTF-8"?>
<svg xmlns="http://www.w3.org/2000/svg" width="64" height="64" viewBox="0 0 64 64">
  <defs>
    <pattern id="sheep-texture" x="0" y="0" width="64" height="64" patternUnits="userSpaceOnUse">
      <!-- Base color -->
      <rect width="64" height="64" fill="#90EE90"/>
      <!-- Grass tufts -->
      <path d="M12 56 L10 48 L12 48 L14 48 L12 56" stroke="#228B22" stroke-width="1" fill="none"/>
      <path d="M28 56 L26 48 L28 48 L30 48 L28 56" stroke="#228B22" stroke-width="1" fill="none"/>
      <path d="M44 56 L42 48 L44 48 L46 48 L44 56" stroke="#228B22" stroke-width="1" fill="none"/>
      <path d="M20 56 L18 50 L20 50 L22 50 L20 56" stroke="#228B22" stroke-width="1" fill="none"/>
      <path d="M36 56 L34 50 L36 50 L38 50 L36 56" stroke="#228B22" stroke-width="1" fill="none"/>
      <path d="M52 56 L50 50 L52 50 L54 50 L52 56" stroke="#228B22" stroke-width="1" fill="none"/>
      <!-- Small dots for texture -->
      <circle cx="16" cy="40" r="1" fill="#228B22" opacity="0.4"/>
      <circle cx="32" cy="36" r="1" fill="#228B22" opacity="0.4"/>
      <circle cx="48" cy="40" r="1" fill="#228B22" opacity="0.4"/>
    </pattern>
  </defs>
  <rect width="64" height="64" fill="url(#sheep-texture)"/>
</svg>
