<?xml version="1.0" encoding="UTF-8"?>
<svg xmlns="http://www.w3.org/2000/svg" viewBox="0 0 32 32" width="32" height="32">
  <!-- Auto icon - Letter A with four curved arrows around -->
  <!-- Letter A -->
  <path d="M16 8 L12 22 L14 22 L15 18 L17 18 L18 22 L20 22 L16 8 Z" 
        fill="#000000" 
        stroke="#000000" 
        stroke-width="1"/>
  <line x1="15.5" y1="15" x2="16.5" y2="15" 
        stroke="#FFFFFF" 
        stroke-width="1.5" 
        stroke-linecap="round"/>
  
  <!-- Top arrow (curved clockwise) -->
  <path d="M10 10 A6 6 0 0 1 22 10" 
        fill="none" 
        stroke="#000000" 
        stroke-width="1.5" 
        stroke-linecap="round"/>
  <path d="M21 7 L23 10 L21 11" 
        fill="#000000" 
        stroke="#000000" 
        stroke-width="1.5" 
        stroke-linecap="round" 
        stroke-linejoin="round"/>
  
  <!-- Right arrow (curved clockwise) -->
  <path d="M22 10 A6 6 0 0 1 22 22" 
        fill="none" 
        stroke="#000000" 
        stroke-width="1.5" 
        stroke-linecap="round"/>
  <path d="M25 21 L22 23 L23 25" 
        fill="#000000" 
        stroke="#000000" 
        stroke-width="1.5" 
        stroke-linecap="round" 
        stroke-linejoin="round"/>
  
  <!-- Bottom arrow (curved clockwise) -->
  <path d="M22 22 A6 6 0 0 1 10 22" 
        fill="none" 
        stroke="#000000" 
        stroke-width="1.5" 
        stroke-linecap="round"/>
  <path d="M11 25 L9 22 L11 21" 
        fill="#000000" 
        stroke="#000000" 
        stroke-width="1.5" 
        stroke-linecap="round" 
        stroke-linejoin="round"/>
  
  <!-- Left arrow (curved clockwise) -->
  <path d="M10 22 A6 6 0 0 1 10 10" 
        fill="none" 
        stroke="#000000" 
        stroke-width="1.5" 
        stroke-linecap="round"/>
  <path d="M7 11 L10 9 L11 11" 
        fill="#000000" 
        stroke="#000000" 
        stroke-width="1.5" 
        stroke-linecap="round" 
        stroke-linejoin="round"/>
</svg>
